<?xml version="1.0" encoding="UTF-8"?>
<svg version="1.1" xmlns="http://www.w3.org/2000/svg" width="250" height="247">
<path d="M0 0 C82.5 0 165 0 250 0 C250 81.51 250 163.02 250 247 C167.5 247 85 247 0 247 C0 165.49 0 83.98 0 0 Z " fill="#D92233" transform="translate(0,0)"/>
<path d="M0 0 C82.5 0 165 0 250 0 C250 81.51 250 163.02 250 247 C167.5 247 85 247 0 247 C0 165.49 0 83.98 0 0 Z M100 14 C98.30810547 14.54333984 98.30810547 14.54333984 96.58203125 15.09765625 C68.25294693 25.08222002 47.05715809 46.31202934 34 73 C28.66992697 84.9840775 25.6304957 97.91721418 25 111 C24.95875 111.7734375 24.9175 112.546875 24.875 113.34375 C24.26413648 136.25113196 31.70626515 156.0830489 42.62890625 175.73413086 C43.07435791 176.53564072 43.51980957 177.33715057 43.97875977 178.16294861 C44.31576904 178.76917557 44.65277832 179.37540253 45 180 C44.60354279 180.38979538 44.20708557 180.77959076 43.7986145 181.18119812 C39.66931168 185.24406862 35.55065631 189.31750988 31.43798828 193.3972168 C29.90227739 194.91785263 28.36388318 196.43578357 26.82275391 197.95092773 C24.60646907 200.13077462 22.40005467 202.3202056 20.1953125 204.51171875 C19.50567413 205.18587326 18.81603577 205.86002777 18.10549927 206.55461121 C13.75170529 210.90686495 11.28152154 214.01587168 10.6875 220.3125 C11.16747158 225.97616466 12.30446875 230.34794391 16.4375 234.375 C20.378547 236.87420053 23.14114639 238.30126396 27.875 238.375 C28.69742187 238.40335938 29.51984375 238.43171875 30.3671875 238.4609375 C36.93399496 237.31125904 41.66505387 231.60427761 46.1484375 227.046875 C46.80582916 226.38665344 47.46322083 225.72643188 48.14053345 225.04620361 C50.22346262 222.95214738 52.29929958 220.85121935 54.375 218.75 C55.79250476 217.32245579 57.21046886 215.89536753 58.62890625 214.46875 C62.09127494 210.98442016 65.54730344 207.49391332 69 204 C70.37998169 204.80099121 70.37998169 204.80099121 71.7878418 205.61816406 C99.88466349 221.85380632 129.4207141 228.91152721 161.55761719 220.31591797 C178.95205785 214.9735858 193.67740619 206.28471469 207 194 C207.66257813 193.41863281 208.32515625 192.83726562 209.0078125 192.23828125 C226.48840153 176.0992258 237.69620565 150.08073557 239.22119141 126.59326172 C239.69970766 111.95066424 239.65375739 97.97658059 235 84 C234.649375 82.89527344 234.29875 81.79054688 233.9375 80.65234375 C228.76548233 65.87258491 220.544184 53.43501368 210 42 C209.41863281 41.33742188 208.83726562 40.67484375 208.23828125 39.9921875 C192.0992258 22.51159847 166.08073557 11.30379435 142.59326172 9.77880859 C127.95297905 9.30036798 113.97378999 9.34207 100 14 Z " fill="#FEFEFE" transform="translate(0,0)"/>
<path d="M0 0 C1.28737061 0.00563965 2.57474121 0.0112793 3.90112305 0.01708984 C31.71269037 0.37164564 55.53649114 10.55843588 75.875 29.3125 C76.53757813 29.89386719 77.20015625 30.47523437 77.8828125 31.07421875 C94.50164108 46.41764885 106.85921997 71.83722647 108.03613281 94.40185547 C108.47209287 128.43208636 102.33660884 155.86872759 78.875 181.3125 C78.29363281 181.97507813 77.71226562 182.63765625 77.11328125 183.3203125 C67.53970625 193.68967585 54.62931653 200.66847923 41.875 206.3125 C40.75738281 206.8075 39.63976562 207.3025 38.48828125 207.8125 C12.58282958 218.11336599 -17.00196933 215.80764284 -42.25 205 C-43.1627771 204.61098511 -43.1627771 204.61098511 -44.09399414 204.21411133 C-50.37490406 201.4070424 -56.2248463 197.83431144 -62.125 194.3125 C-62.51701599 194.70895721 -62.90903198 195.10541443 -63.31292725 195.5138855 C-67.39493147 199.6401453 -71.48396553 203.75934136 -75.57714844 207.87451172 C-77.103703 209.41112221 -78.62845748 210.94952317 -80.15136719 212.48974609 C-82.34098793 214.70363252 -84.53700665 216.910994 -86.734375 219.1171875 C-87.4136908 219.80682587 -88.09300659 220.49646423 -88.79290771 221.20700073 C-89.43326965 221.84751373 -90.07363159 222.48802673 -90.73339844 223.14794922 C-91.29299255 223.71198456 -91.85258667 224.2760199 -92.42913818 224.85714722 C-96.5320046 228.37814049 -100.2586501 228.80410472 -105.51953125 228.6953125 C-110.94939227 227.89752183 -114.8040273 225.05959293 -118.0625 220.75 C-120.39657103 215.39536647 -121.2287774 210.156666 -119.05151367 204.54638672 C-116.57201364 200.38424537 -113.50162108 197.31551236 -110.05078125 193.9453125 C-109.3669487 193.26572479 -108.68311615 192.58613708 -107.9785614 191.88595581 C-105.80518133 189.72929106 -103.6215762 187.5833266 -101.4375 185.4375 C-99.9569936 183.9720496 -98.47716814 182.50591094 -96.99804688 181.0390625 C-93.38153398 177.4555241 -89.7558175 173.88154196 -86.125 170.3125 C-86.66552002 169.37801025 -87.20604004 168.44352051 -87.76293945 167.48071289 C-88.48400216 166.22809379 -89.20494291 164.97540448 -89.92578125 163.72265625 C-90.28063599 163.10990845 -90.63549072 162.49716064 -91.00109863 161.86584473 C-105.4086128 136.78303287 -109.96547271 107.02676589 -102.6027832 78.94018555 C-99.92007188 69.47083391 -95.91516813 60.88675825 -91.125 52.3125 C-90.58101562 51.32636719 -90.03703125 50.34023438 -89.4765625 49.32421875 C-74.86732454 24.70230795 -49.23504392 8.74529526 -21.99316406 1.76635742 C-14.67073758 0.0869911 -7.48927459 -0.03415972 0 0 Z M-57.125 43.3125 C-57.85332031 43.97121094 -58.58164063 44.62992188 -59.33203125 45.30859375 C-73.04621198 58.34099877 -83.00986524 77.87772077 -84.30200195 96.92114258 C-84.59698215 110.33157705 -84.55444335 122.5469895 -80.125 135.3125 C-79.76277344 136.37339844 -79.40054688 137.43429688 -79.02734375 138.52734375 C-74.51107532 150.42273552 -66.97575861 160.29330135 -58.125 169.3125 C-57.46242188 169.99957031 -56.79984375 170.68664062 -56.1171875 171.39453125 C-39.75839759 187.1624143 -18.0779117 193.19266989 4.13232422 192.88964844 C13.20590848 192.57082231 21.30598111 191.3544023 29.875 188.3125 C30.94492188 187.93867188 32.01484375 187.56484375 33.1171875 187.1796875 C54.14269036 179.1011864 70.70943534 162.57797919 80.1484375 142.328125 C88.87891893 122.63488304 90.56622829 97.63467504 82.875 77.3125 C73.19779973 53.74319175 56.29233459 36.41387946 32.97509766 26.17431641 C2.36485822 13.6128022 -33.16409346 21.43515055 -57.125 43.3125 Z " fill="#232021" transform="translate(131.125,9.6875)"/>
<path d="M0 0 C16.52306888 13.07516562 29.94716877 31.84357114 33.28125 53.08886719 C34.98667165 68.08828744 34.63266283 83.27097854 29.5625 97.5625 C28.94375 99.33753906 28.94375 99.33753906 28.3125 101.1484375 C19.99222396 122.56369344 3.67589985 138.04867439 -16.76171875 147.98828125 C-37.99530937 157.08194439 -62.91907583 157.8982249 -84.43701172 149.40039062 C-89.04280449 147.47128631 -93.27658537 145.32310682 -97.4375 142.5625 C-98.345 141.96695313 -99.2525 141.37140625 -100.1875 140.7578125 C-115.60517353 130.09392164 -127.52385367 115.46083643 -133.4375 97.5625 C-133.82808594 96.43328125 -134.21867187 95.3040625 -134.62109375 94.140625 C-141.13482682 72.41315552 -138.5149484 48.74562495 -128.4375 28.5625 C-117.76101925 8.75076276 -99.34098823 -6.84211591 -77.93115234 -13.77075195 C-50.81449135 -21.61064198 -22.62607683 -16.38242525 0 0 Z M-106.4375 14.5625 C-107.21222656 15.31273438 -107.98695312 16.06296875 -108.78515625 16.8359375 C-122.8585232 31.36795621 -128.75 50.61857346 -128.75 70.59350586 C-128.39125045 89.77233838 -121.3920117 107.40470361 -108.4375 121.5625 C-107.84710938 122.24441406 -107.25671875 122.92632812 -106.6484375 123.62890625 C-93.48165071 137.94428508 -74.20011999 145.71566631 -55.04296875 146.8828125 C-33.49491431 147.68321534 -14.13994634 139.96818857 2.1875 125.9375 C17.24310096 111.74099182 26.16454495 91.82197163 27.03466797 71.17675781 C27.20069706 58.56437218 24.46789725 45.74506074 18.5625 34.5625 C18.17835938 33.72976562 17.79421875 32.89703125 17.3984375 32.0390625 C8.56352871 14.00758199 -8.79151969 1.02458776 -27.4921875 -5.50390625 C-56.05775893 -13.69375845 -85.28831739 -6.21445699 -106.4375 14.5625 Z " fill="#FBF9F9" transform="translate(184.4375,47.4375)"/>
<path d="M0 0 C2.475 0.99 2.475 0.99 5 2 C5.33 10.58 5.66 19.16 6 28 C7.98 26.68 9.96 25.36 12 24 C19.25478506 21.45946665 26.81904787 22.66365415 33.67578125 25.7421875 C40.48698458 29.42825048 44.10692542 33.8838592 47 41 C47.35578125 41.79148438 47.7115625 42.58296875 48.078125 43.3984375 C50.9629092 51.53939631 49.08356411 59.70087348 45.546875 67.30078125 C41.33200461 74.65551721 35.20209243 78.98668459 27.20703125 81.58203125 C18.00314089 83.32506889 8.12701344 82.87334139 0 78 C-6.4925409 73.43828431 -11.4568488 68.00608172 -13 60 C-13.10028198 58.15290058 -13.14820393 56.30265532 -13.16113281 54.45288086 C-13.17074036 53.34170395 -13.1803479 52.23052704 -13.19024658 51.0856781 C-13.19449646 49.89080276 -13.19874634 48.69592743 -13.203125 47.46484375 C-13.20882507 46.23464005 -13.21452515 45.00443634 -13.22039795 43.73695374 C-13.22984081 41.13706318 -13.23637909 38.5371607 -13.24023438 35.93725586 C-13.24674998 33.268627 -13.25861042 30.60082989 -13.28125 27.93237305 C-13.31159734 24.08892955 -13.32226807 20.24589343 -13.328125 16.40234375 C-13.3404718 15.20544418 -13.3528186 14.00854462 -13.36553955 12.77537537 C-13.36253845 11.66735062 -13.35953735 10.55932587 -13.35644531 9.41772461 C-13.36009094 8.44161728 -13.36373657 7.46550995 -13.36749268 6.45982361 C-12.93733941 3.58057941 -12.28063254 2.74156723 -10 1 C-6.8548375 -0.57258125 -3.43577095 -0.36524412 0 0 Z " fill="#FEFCFB" transform="translate(146,84)"/>
<path d="M0 0 C1.42892578 0.03673828 1.42892578 0.03673828 2.88671875 0.07421875 C5.3125 0.3125 5.3125 0.3125 7.3125 1.3125 C7.38239357 8.57160461 7.43550907 15.83063518 7.46793652 23.09000969 C7.48350989 26.46182116 7.50459282 29.83340031 7.53881836 33.20507812 C7.57542452 37.09250902 7.59227786 40.979615 7.60546875 44.8671875 C7.62095261 46.06238007 7.63643646 47.25757263 7.65238953 48.48898315 C7.65440023 58.60873843 6.45552079 67.14465239 -0.73828125 74.625 C-7.77511217 80.71700592 -17.20983891 82.82980442 -26.3671875 82.55859375 C-35.95687635 81.54150554 -43.21690894 77.428103 -49.5625 70.25 C-54.44269305 63.50385078 -55.58554307 55.49752113 -54.6875 47.3125 C-52.7052789 38.92985413 -48.991659 31.72302467 -41.59765625 26.96875 C-34.74772711 23.39709235 -27.82116693 22.06748471 -20.20703125 23.9140625 C-16.63112579 25.0690858 -13.83666014 26.2130599 -10.6875 28.3125 C-10.71368408 27.60641602 -10.73986816 26.90033203 -10.7668457 26.17285156 C-10.87086357 22.96962792 -10.93584149 19.7667594 -11 16.5625 C-11.04189453 15.45132813 -11.08378906 14.34015625 -11.12695312 13.1953125 C-11.24998099 5.02626198 -11.24998099 5.02626198 -8.5234375 1.56640625 C-5.41119742 0.19033315 -3.3874417 -0.13401884 0 0 Z " fill="#FEFCFB" transform="translate(121.6875,60.6875)"/>
<path d="M0 0 C3.31537347 3.31537347 4.41646537 5.38640396 4.4375 10 C4.33109255 15.22156553 2.99914325 17.93849954 -0.375 21.875 C-3.80676867 24.73480722 -7.63316185 24.41258225 -11.875 24.125 C-15.24392491 22.89404667 -17.30068691 21.73760063 -19.75 19.125 C-21.50118637 14.45516969 -21.64632279 10.04128169 -20.875 5.125 C-19.21714193 1.67283463 -16.81178019 -0.29267718 -13.5625 -2.3125 C-8.45706904 -3.38107857 -4.38454381 -2.85948509 0 0 Z " fill="#D92333" transform="translate(171.875,125.875)"/>
<path d="M0 0 C3.3792573 2.03005291 6.22397384 4.44794768 8 8 C9.03037808 17.00844834 9.03037808 17.00844834 6.953125 21.0234375 C4.47535361 24.0113383 2.48573267 25.83006326 -1.390625 26.2734375 C-10.06189862 26.58143356 -10.06189862 26.58143356 -13.625 23.6875 C-17.26026063 19.5739156 -17.44904684 15.87883141 -17.42578125 10.58203125 C-16.7217284 6.31249977 -14.22845385 3.73498551 -11 1 C-7.48308711 -0.75845645 -3.82789463 -0.68065337 0 0 Z " fill="#D92233" transform="translate(103,100)"/>
</svg>
